<?xml version="1.0" standalone="no"?>
<!DOCTYPE svg PUBLIC "-//W3C//DTD SVG 20010904//EN"
 "http://www.w3.org/TR/2001/REC-SVG-20010904/DTD/svg10.dtd">
<svg version="1.0" xmlns="http://www.w3.org/2000/svg"
 width="16.000000pt" height="16.000000pt" viewBox="0 0 16.000000 16.000000"
 preserveAspectRatio="xMidYMid meet">

<g transform="translate(0.000000,16.000000) scale(0.100000,-0.100000)"
fill="#000000" stroke="none">
<path d="M25 135 c-50 -49 -15 -135 55 -135 41 0 80 39 80 80 0 41 -39 80 -80
80 -19 0 -40 -9 -55 -25z m45 -55 c0 -28 -5 -50 -10 -50 -16 0 -26 33 -12 38
7 2 12 17 12 33 0 16 2 29 5 29 3 0 5 -22 5 -50z m40 31 c0 -10 3 -34 7 -52 6
-30 5 -33 -9 -21 -13 10 -17 10 -21 0 -3 -7 -6 11 -6 40 -1 40 2 52 14 52 8 0
15 -8 15 -19z"/>
</g>
</svg>
