<?xml version="1.0" standalone="no"?>
<!DOCTYPE svg PUBLIC "-//W3C//DTD SVG 20010904//EN"
 "http://www.w3.org/TR/2001/REC-SVG-20010904/DTD/svg10.dtd">
<svg version="1.0" xmlns="http://www.w3.org/2000/svg"
 width="331.000000pt" height="291.000000pt" viewBox="0 0 331.000000 291.000000"
 preserveAspectRatio="xMidYMid meet">

<g transform="translate(0.000000,291.000000) scale(0.100000,-0.100000)"
fill="#000000" stroke="none">
<path d="M0 1455 l0 -1455 1655 0 1655 0 0 1455 0 1455 -1655 0 -1655 0 0
-1455z m3130 420 l0 -965 -1480 0 -1480 0 0 738 c0 406 3 841 7 965 l6 227
1474 0 1473 0 0 -965z m-140 -1380 c0 -208 1 -215 22 -235 21 -19 21 -21 5
-38 -14 -13 -34 -17 -98 -16 -98 1 -110 10 -78 61 22 35 24 48 24 180 0 141 0
142 -28 171 -24 25 -26 31 -13 41 23 19 108 50 139 51 l27 0 0 -215z m230 195
c27 -27 25 -46 -9 -81 -35 -35 -85 -40 -101 -10 -18 34 -12 68 16 90 34 26 68
27 94 1z m-2876 -26 c23 -9 20 -29 -9 -60 -25 -27 -25 -28 -25 -215 l0 -189
-65 -65 c-63 -64 -100 -81 -111 -51 -3 8 4 28 17 45 19 26 23 49 30 163 4 73
8 169 8 214 l1 81 -40 18 c-73 33 -26 65 97 65 45 0 88 -3 97 -6z m2251 -21
c9 -16 47 -98 85 -183 37 -85 80 -167 95 -183 36 -37 30 -60 -20 -69 -86 -15
-205 -6 -205 15 0 6 15 26 32 44 31 32 32 35 17 61 -14 25 -20 27 -91 30 -59
2 -79 -1 -92 -13 -23 -24 -20 -40 15 -69 18 -15 29 -33 27 -43 -3 -16 -17 -18
-101 -21 -114 -3 -117 1 -59 72 22 27 63 106 101 196 36 83 71 156 78 162 12
9 43 18 95 27 4 0 14 -11 23 -26z m625 -139 c6 -14 10 -70 10 -124 0 -89 2
-100 21 -114 12 -8 19 -22 17 -33 -7 -37 -198 -43 -198 -7 0 9 12 36 26 60 31
52 28 108 -6 136 -37 30 -19 62 50 92 50 22 69 20 80 -10z m-2545 -8 c35 -23
45 -54 45 -137 0 -56 4 -73 20 -89 30 -30 25 -48 -19 -60 -45 -12 -101 -4
-118 18 -9 10 -16 12 -25 5 -7 -6 -28 -15 -47 -22 -97 -32 -170 71 -105 148
23 28 31 31 84 31 32 0 66 3 75 6 15 6 14 8 -1 25 -14 16 -26 18 -90 12 -64
-5 -74 -4 -74 10 0 9 19 31 43 48 40 29 46 31 114 27 44 -3 82 -11 98 -22z
m385 4 c11 -11 20 -29 20 -39 0 -52 -29 -65 -71 -33 -28 22 -67 33 -74 22 -3
-4 27 -32 65 -61 39 -30 73 -64 76 -76 9 -33 -18 -67 -71 -93 -38 -19 -55 -21
-106 -15 -74 9 -102 31 -97 78 4 40 27 46 67 18 33 -24 76 -32 76 -14 0 6 -29
33 -65 60 -73 55 -84 82 -50 126 26 33 65 45 148 46 49 1 66 -3 82 -19z m328
14 c24 -7 65 -70 76 -116 10 -45 -14 -58 -104 -58 -81 0 -101 -9 -79 -37 11
-13 27 -14 96 -9 68 6 83 4 83 -7 0 -31 -74 -73 -141 -80 -113 -12 -211 90
-174 180 44 105 139 155 243 127z m272 -9 c16 -19 39 -19 64 0 26 20 77 19
121 -2 33 -16 37 -16 64 0 38 23 103 22 124 -1 21 -23 36 -93 37 -166 0 -41 5
-65 16 -77 33 -36 -5 -59 -97 -59 l-39 0 0 78 c0 42 -3 94 -7 115 -5 34 -9 38
-32 35 -25 -3 -26 -6 -29 -67 -3 -53 1 -70 18 -93 11 -16 18 -33 15 -38 -8
-13 -73 -30 -117 -30 l-38 0 0 115 0 115 -24 0 c-54 0 -77 -101 -35 -154 30
-39 22 -59 -30 -69 -54 -11 -151 0 -151 16 0 7 12 30 25 52 31 49 33 110 5
145 -29 37 -25 57 18 79 45 24 75 26 92 6z"/>
<path d="M752 2294 c-15 -10 -22 -24 -20 -37 2 -17 13 -24 51 -31 l47 -8 0
-309 0 -310 -40 -62 -40 -62 21 -17 c12 -10 29 -18 40 -18 10 0 59 39 108 86
l91 86 0 286 0 285 40 34 c30 26 40 42 40 64 l0 29 -158 0 c-128 0 -162 -3
-180 -16z"/>
<path d="M1365 2268 c-3 -24 -5 -215 -3 -425 2 -296 6 -385 16 -395 10 -10 15
-10 22 2 11 16 14 818 4 844 -12 31 -33 17 -39 -26z"/>
<path d="M2220 2294 c-60 -9 -188 -36 -197 -42 -5 -4 -53 -117 -107 -252 -141
-352 -163 -395 -230 -453 -50 -43 -56 -52 -56 -88 l0 -39 182 2 181 3 18 42
18 42 -73 46 -73 45 21 55 21 55 157 0 158 0 25 -50 c34 -66 32 -87 -7 -108
-55 -29 -88 -67 -88 -101 l0 -31 225 0 225 0 20 33 c29 47 25 59 -25 86 -25
13 -54 38 -65 56 -11 17 -73 162 -139 321 -135 329 -159 385 -163 383 -2 -1
-14 -3 -28 -5z m-72 -342 c36 -87 47 -125 38 -128 -7 -3 -58 -3 -113 -2 l-101
3 39 100 c56 142 69 169 78 159 4 -5 31 -64 59 -132z"/>
<path d="M2492 537 c-12 -14 -42 -92 -42 -108 0 -5 23 -9 50 -9 57 0 59 5 33
72 -21 55 -27 62 -41 45z"/>
<path d="M521 331 c-7 -5 -10 -14 -7 -20 9 -14 42 -14 69 1 21 11 21 11 2 19
-27 10 -47 10 -64 0z"/>
<path d="M1278 436 c-30 -22 -22 -46 15 -46 17 0 39 4 47 10 12 7 12 12 -4 29
-22 24 -34 26 -58 7z"/>
</g>
</svg>
