<?xml version="1.0" standalone="no"?>
<!DOCTYPE svg PUBLIC "-//W3C//DTD SVG 20010904//EN"
 "http://www.w3.org/TR/2001/REC-SVG-20010904/DTD/svg10.dtd">
<svg version="1.0" xmlns="http://www.w3.org/2000/svg"
 width="248.000000pt" height="218.000000pt" viewBox="0 0 248.000000 218.000000"
 preserveAspectRatio="xMidYMid meet">

<g transform="translate(0.000000,218.000000) scale(0.100000,-0.100000)"
fill="#FFFFFF" stroke="none">
<path d="M137 2123 c-4 -3 -7 -330 -7 -725 l0 -718 1110 0 1110 0 -2 723 -3
722 -1101 3 c-605 1 -1104 -1 -1107 -5z m683 -417 c0 -16 -11 -32 -30 -46
l-30 -21 0 -212 0 -213 -74 -73 c-74 -74 -75 -74 -100 -58 l-25 17 29 47 30
47 0 233 0 233 -27 6 c-54 11 -54 11 -41 39 11 25 12 25 140 25 l128 0 0 -24z
m240 -301 c0 -318 0 -325 -20 -325 -20 0 -20 7 -20 325 0 318 0 325 20 325 20
0 20 -7 20 -325z m693 165 c31 -74 80 -193 109 -265 50 -122 56 -131 93 -150
22 -11 42 -21 44 -23 6 -3 -22 -55 -34 -65 -5 -4 -83 -7 -172 -6 l-163 1 0 32
c0 28 6 35 45 54 51 24 54 36 25 92 l-20 40 -118 0 -118 0 -14 -37 c-8 -21
-16 -40 -18 -43 -1 -3 23 -19 53 -35 30 -17 55 -34 55 -38 0 -4 -7 -21 -15
-37 l-16 -30 -134 0 -135 0 0 33 c0 27 8 38 48 68 46 35 49 40 146 281 l99
245 86 20 c58 13 88 16 92 8 4 -5 32 -71 62 -145z"/>
<path d="M1551 1549 c-5 -13 -23 -59 -40 -102 -17 -43 -31 -80 -31 -82 0 -3
39 -5 86 -5 65 0 85 3 81 13 -3 6 -22 52 -42 102 -20 49 -38 92 -40 94 -3 2
-9 -7 -14 -20z"/>
<path d="M2148 509 c-43 -22 -47 -33 -18 -51 18 -12 20 -24 20 -127 0 -103 -2
-117 -21 -137 -31 -33 -16 -44 61 -44 58 0 71 3 79 19 9 15 7 20 -9 24 -19 5
-20 14 -20 171 l0 166 -27 0 c-16 -1 -45 -10 -65 -21z"/>
<path d="M2336 511 c-21 -23 -18 -60 6 -75 43 -26 110 40 78 78 -17 22 -63 20
-84 -3z"/>
<path d="M90 485 c-14 -17 -15 -17 24 -33 l28 -13 -3 -158 c-4 -147 -6 -162
-27 -190 -21 -29 -21 -31 -4 -40 15 -8 28 -1 70 42 l52 53 0 146 c0 137 1 148
20 158 11 6 20 20 20 30 0 18 -7 20 -84 20 -63 0 -87 -4 -96 -15z"/>
<path d="M1888 493 c-35 -6 -38 -9 -94 -148 -33 -84 -57 -128 -78 -147 -43
-37 -27 -50 60 -46 56 2 69 6 72 20 2 11 -6 22 -22 29 -28 13 -34 37 -14 57 7
7 38 12 70 12 55 0 59 -2 69 -27 9 -24 7 -30 -15 -48 -46 -37 -34 -45 64 -45
77 0 91 3 99 19 8 15 6 20 -13 29 -16 7 -37 47 -81 156 -42 104 -63 146 -74
145 -9 -1 -28 -4 -43 -6z m16 -132 c9 -24 15 -45 12 -48 -2 -2 -22 -3 -44 -1
l-39 3 20 53 c22 58 26 58 51 -7z"/>
<path d="M1190 379 c-51 -19 -60 -37 -30 -64 27 -24 27 -85 0 -110 -11 -10
-20 -26 -20 -37 0 -16 9 -18 70 -18 57 0 71 3 79 18 7 14 5 21 -10 30 -17 11
-19 22 -17 65 3 48 5 52 31 55 l27 3 0 -85 0 -86 49 0 c55 0 89 24 58 41 -13
8 -17 24 -17 69 0 57 1 60 25 60 25 0 25 -1 25 -85 l0 -85 54 0 c41 0 55 4 60
17 4 10 1 20 -9 25 -11 7 -15 26 -15 74 0 63 -11 101 -34 116 -19 13 -69 9
-87 -8 -16 -15 -20 -15 -41 0 -28 20 -82 21 -98 1 -17 -20 -35 -19 -46 3 -9
18 -11 18 -54 1z"/>
<path d="M2343 379 c-47 -22 -56 -46 -23 -67 14 -9 20 -23 20 -51 0 -25 -7
-44 -20 -56 -11 -10 -20 -26 -20 -37 0 -16 9 -18 74 -18 60 0 75 3 80 17 6 15
-8 32 -26 33 -5 0 -8 45 -8 100 0 113 -1 114 -77 79z"/>
<path d="M342 363 c-44 -38 -32 -55 31 -41 36 7 52 7 62 -2 27 -22 16 -30 -44
-30 -51 0 -62 -3 -75 -22 -37 -52 -5 -118 56 -118 17 0 40 8 51 17 18 17 19
17 28 0 15 -26 104 -24 119 2 8 16 6 21 -10 26 -17 5 -20 15 -20 70 0 35 -3
71 -6 80 -10 25 -59 45 -111 45 -39 0 -55 -6 -81 -27z m108 -123 c0 -12 -45
-24 -59 -15 -22 13 -10 25 24 25 19 0 35 -4 35 -10z"/>
<path d="M647 374 c-32 -18 -49 -52 -36 -76 5 -9 31 -30 59 -47 28 -17 48 -36
45 -41 -10 -15 -30 -12 -58 10 -39 31 -57 26 -57 -15 0 -42 23 -55 100 -55 38
0 55 6 79 26 48 40 42 67 -24 110 -30 20 -55 41 -55 45 0 17 34 9 56 -12 13
-12 30 -19 38 -16 23 9 21 64 -3 77 -29 15 -112 12 -144 -6z"/>
<path d="M922 370 c-37 -23 -72 -75 -72 -108 0 -96 125 -146 213 -86 21 14 36
31 34 37 -4 14 -6 14 -70 3 -33 -6 -52 -5 -62 4 -32 26 -16 36 56 34 54 -2 72
1 76 13 9 23 -16 91 -40 108 -30 21 -96 19 -135 -5z m76 -42 c23 -23 13 -38
-23 -38 -38 0 -44 10 -19 34 19 19 26 20 42 4z"/>
</g>
</svg>
