<?xml version="1.0" standalone="no"?>
<!DOCTYPE svg PUBLIC "-//W3C//DTD SVG 20010904//EN"
 "http://www.w3.org/TR/2001/REC-SVG-20010904/DTD/svg10.dtd">
<svg version="1.0" xmlns="http://www.w3.org/2000/svg"
 width="248.000000pt" height="218.000000pt" viewBox="0 0 248.000000 218.000000"
 preserveAspectRatio="xMidYMid meet">

<g transform="translate(0.000000,218.000000) scale(0.100000,-0.100000)"
fill="#000000" stroke="none">
<path d="M130 1400 l0 -720 1105 0 1105 0 0 720 0 720 -1105 0 -1105 0 0 -720z
m690 306 c0 -16 -11 -32 -30 -46 l-30 -21 0 -212 0 -213 -74 -73 c-74 -74 -75
-74 -100 -58 l-25 17 29 47 30 47 0 233 0 233 -27 6 c-54 11 -54 11 -41 39 11
25 12 25 140 25 l128 0 0 -24z m240 -301 c0 -318 0 -325 -20 -325 -20 0 -20 7
-20 325 0 318 0 325 20 325 20 0 20 -7 20 -325z m693 165 c31 -74 80 -193 109
-265 50 -122 56 -131 93 -150 22 -11 42 -21 44 -23 6 -3 -22 -55 -34 -65 -5
-4 -83 -7 -172 -6 l-163 1 0 32 c0 28 6 35 45 54 51 24 54 36 25 92 l-20 40
-118 0 -118 0 -14 -37 c-8 -21 -16 -40 -18 -43 -1 -3 23 -19 53 -35 30 -17 55
-34 55 -38 0 -4 -7 -21 -15 -37 l-16 -30 -134 0 -135 0 0 33 c0 27 8 38 48 68
46 35 49 40 146 281 l99 245 86 20 c58 13 88 16 92 8 4 -5 32 -71 62 -145z"/>
<path d="M1551 1549 c-5 -13 -23 -59 -40 -102 -17 -43 -31 -80 -31 -82 0 -3
39 -5 86 -5 65 0 85 3 81 13 -3 6 -22 52 -42 102 -20 49 -38 92 -40 94 -3 2
-9 -7 -14 -20z"/>
<path d="M2158 513 c-42 -17 -51 -46 -19 -63 17 -9 19 -22 19 -115 0 -88 -3
-108 -19 -129 -36 -46 -27 -56 51 -56 56 0 72 3 77 16 4 10 0 20 -10 26 -15 8
-17 31 -17 173 0 165 0 165 -22 164 -13 0 -40 -7 -60 -16z"/>
<path d="M2340 512 c-18 -14 -21 -25 -16 -45 8 -35 42 -44 75 -19 32 24 37 44
16 66 -21 21 -47 20 -75 -2z"/>
<path d="M1891 490 c-41 -10 -40 -8 -97 -153 -32 -80 -54 -123 -70 -134 -13
-8 -24 -24 -24 -34 0 -17 8 -19 69 -19 56 0 70 3 75 17 7 16 -10 37 -37 46 -6
2 -7 14 -3 30 6 26 9 27 71 27 61 0 65 -1 80 -30 15 -29 15 -30 -16 -45 -50
-26 -31 -40 62 -43 70 -2 86 0 96 14 11 15 9 20 -13 33 -19 12 -39 51 -79 148
-29 72 -56 136 -60 142 -7 12 -6 12 -54 1z m17 -132 c11 -25 18 -49 14 -52 -9
-9 -92 -7 -92 3 0 21 44 111 50 104 4 -4 17 -29 28 -55z"/>
<path d="M87 476 c-4 -9 4 -16 24 -20 l29 -5 0 -154 c0 -133 -3 -158 -20 -192
-15 -29 -17 -42 -8 -52 9 -12 21 -4 65 39 l53 52 0 148 c0 137 1 149 20 160
11 7 20 18 20 25 0 19 -176 18 -183 -1z"/>
<path d="M2348 378 c-52 -22 -60 -40 -28 -60 15 -10 20 -24 20 -60 0 -37 -4
-50 -20 -58 -11 -6 -20 -19 -20 -29 0 -26 119 -30 145 -5 16 17 16 18 -4 26
-19 7 -21 15 -21 108 0 112 2 110 -72 78z"/>
<path d="M343 362 c-40 -33 -33 -59 11 -42 39 15 72 12 91 -6 22 -22 14 -27
-49 -28 -63 -2 -96 -24 -96 -67 0 -32 40 -69 75 -69 12 0 34 10 49 21 l27 21
6 -21 c4 -18 13 -21 54 -21 55 0 77 22 46 45 -13 9 -17 28 -17 74 0 56 -3 66
-29 92 -25 25 -37 29 -83 29 -43 0 -59 -6 -85 -28z m110 -109 c14 -8 -15 -33
-39 -33 -24 0 -39 14 -30 29 6 9 55 12 69 4z"/>
<path d="M641 364 c-46 -39 -41 -65 21 -105 28 -19 54 -40 56 -46 6 -21 -43
-15 -63 7 -29 32 -45 25 -45 -19 l0 -40 54 -6 c61 -8 83 -3 120 26 42 33 34
61 -29 103 -30 20 -55 41 -55 46 0 18 46 11 65 -10 27 -29 35 -25 35 19 0 44
-12 51 -87 51 -30 0 -50 -7 -72 -26z"/>
<path d="M935 373 c-47 -24 -64 -43 -74 -79 -23 -84 37 -151 128 -142 26 3 60
13 74 24 31 22 38 61 10 49 -61 -24 -123 -14 -123 21 0 11 18 14 75 14 82 0
84 1 64 61 -22 65 -87 88 -154 52z m75 -52 c15 -29 13 -31 -30 -31 -41 0 -52
14 -28 38 18 18 46 14 58 -7z"/>
<path d="M1178 373 c-42 -17 -48 -36 -18 -55 29 -19 28 -101 -1 -122 -13 -9
-19 -21 -16 -30 9 -23 135 -23 144 0 4 10 0 20 -10 26 -25 14 -24 114 1 127
31 17 41 -1 44 -84 l3 -80 42 -2 c28 -2 47 3 59 14 15 16 15 17 -5 25 -18 6
-21 15 -21 62 0 43 4 57 18 65 31 17 41 -1 44 -84 l3 -80 43 -3 c58 -4 99 29
52 41 -18 5 -20 14 -20 85 0 64 -3 82 -18 95 -25 23 -64 21 -94 -3 -25 -19
-26 -19 -43 0 -23 26 -65 25 -98 0 -14 -11 -27 -20 -30 -20 -3 0 -7 9 -10 20
-6 23 -18 24 -69 3z"/>
</g>
</svg>
