<?xml version="1.0" standalone="no"?>
<!DOCTYPE svg PUBLIC "-//W3C//DTD SVG 20010904//EN"
 "http://www.w3.org/TR/2001/REC-SVG-20010904/DTD/svg10.dtd">
<svg version="1.0" xmlns="http://www.w3.org/2000/svg"
 width="543.000000pt" height="554.000000pt" viewBox="0 0 543.000000 554.000000"
 preserveAspectRatio="xMidYMid meet">

<g transform="translate(0.000000,554.000000) scale(0.100000,-0.100000)"
fill="#000000" stroke="none">
<path d="M0 2770 l0 -2770 2715 0 2715 0 0 2698 0 2698 -72 72 -72 72 -2643 0
-2643 0 0 -2770z m2930 2540 c88 -17 160 -56 218 -117 43 -46 57 -69 74 -130
21 -70 23 -73 53 -73 17 0 51 -10 75 -22 88 -45 109 -135 106 -458 -1 -165 -4
-193 -25 -255 -29 -85 -80 -135 -140 -135 -42 0 -54 -7 -70 -37 -17 -34 -14
-39 42 -68 70 -37 130 -80 190 -137 28 -27 54 -48 59 -48 4 0 8 -6 8 -13 0 -7
8 -22 19 -33 52 -57 131 -245 156 -377 36 -181 57 -272 65 -280 4 -5 46 -13
91 -18 100 -10 197 -28 222 -41 34 -17 60 -42 115 -105 24 -29 79 -253 93
-379 14 -139 28 -516 28 -794 1 -260 -4 -293 -60 -407 -65 -131 -142 -180
-294 -189 -97 -5 -145 -13 -145 -22 -2 -47 -57 -327 -91 -462 -27 -106 -66
-147 -170 -178 -83 -25 -146 -27 -304 -11 -146 15 -172 24 -210 80 -32 46 -54
141 -100 434 -9 55 -21 105 -26 110 -6 6 -49 9 -102 7 -51 -2 -113 1 -139 7
-66 15 -76 9 -83 -57 -11 -105 -56 -362 -71 -408 -40 -124 -99 -152 -304 -140
-169 9 -281 41 -311 87 -56 86 -122 428 -191 979 -14 112 -16 550 -3 811 l7
146 -56 66 c-31 36 -56 72 -56 79 0 8 -4 18 -9 24 -21 21 -51 154 -51 223 0
69 15 155 30 176 4 6 13 28 20 50 7 22 18 45 24 51 6 6 25 29 41 50 39 50 123
130 155 146 14 7 29 19 33 25 4 7 14 13 21 13 6 0 29 38 51 85 21 47 46 93 55
103 10 10 29 36 43 58 35 56 170 189 206 204 17 7 31 17 31 22 0 6 -18 31 -41
56 -23 26 -45 57 -50 70 -13 33 -11 96 3 129 26 58 144 143 198 143 27 0 34
33 28 143 -5 80 -19 141 -38 157 -4 3 -16 27 -29 55 -21 44 -23 61 -19 155 4
124 31 195 94 251 20 19 44 42 53 52 8 9 21 17 28 17 7 0 13 5 13 10 0 6 9 10
20 10 10 0 35 16 54 35 72 72 221 103 366 75z"/>
<path d="M2702 5222 c-9 -6 8 -12 50 -19 69 -12 155 -47 176 -72 72 -91 89
-123 112 -214 10 -37 10 -63 0 -123 -14 -92 -29 -129 -70 -173 -17 -18 -38
-44 -47 -57 -8 -13 -22 -24 -30 -24 -8 0 -33 -9 -55 -20 -32 -15 -62 -20 -127
-20 -89 0 -151 14 -223 51 -10 5 -20 9 -23 9 -3 0 -5 -57 -5 -126 0 -69 -5
-134 -10 -145 -8 -14 -21 -19 -50 -19 -22 0 -48 -4 -58 -9 -9 -5 -28 -14 -42
-20 -33 -16 -62 -84 -50 -117 14 -35 50 -70 85 -80 17 -5 75 -9 130 -9 l100 0
5 35 c6 36 17 58 58 122 28 45 86 68 171 68 59 0 62 -1 59 -22 -2 -19 -13 -24
-66 -35 -89 -18 -118 -37 -131 -89 -15 -59 -1 -94 49 -118 35 -17 53 -18 146
-12 104 7 204 35 204 57 0 5 5 9 10 9 17 0 66 53 78 85 18 47 30 144 43 350 9
149 9 213 0 295 -18 148 -70 340 -93 340 -4 0 -8 6 -8 13 -1 16 -58 52 -118
73 -52 19 -249 31 -270 16z"/>
<path d="M2605 5143 c-30 -7 -88 -36 -103 -50 -7 -7 -17 -13 -22 -13 -5 0 -19
-17 -31 -37 -13 -21 -29 -44 -36 -51 -18 -18 -33 -79 -33 -132 0 -63 17 -116
55 -175 64 -99 238 -152 363 -111 29 10 52 22 52 27 0 5 5 9 10 9 17 0 48 36
80 93 27 48 30 63 30 137 0 110 -22 179 -71 225 -21 19 -42 35 -48 35 -5 0
-11 4 -13 10 -7 22 -177 46 -233 33z"/>
<path d="M3256 4902 c-3 -5 0 -49 6 -99 9 -69 9 -147 -2 -337 -8 -155 -10
-250 -4 -256 16 -16 69 10 89 44 17 28 19 58 23 297 4 253 3 267 -17 310 -18
38 -25 44 -55 46 -19 2 -37 -1 -40 -5z"/>
<path d="M2540 3960 c-8 -5 -27 -10 -42 -10 -16 0 -28 -4 -28 -10 0 -5 -9 -10
-20 -10 -11 0 -20 -4 -20 -10 0 -5 -7 -10 -15 -10 -9 0 -25 -9 -37 -20 -11
-10 -37 -27 -57 -36 -20 -10 -49 -30 -66 -45 -16 -15 -44 -40 -61 -56 -16 -15
-41 -44 -54 -63 -33 -47 -52 -70 -72 -89 -19 -16 -24 -46 -10 -55 4 -2 39 2
77 10 39 7 129 16 200 20 220 10 533 -37 595 -90 8 -8 27 -16 43 -20 15 -3 27
-11 27 -16 0 -6 4 -10 9 -10 8 0 51 -43 111 -109 44 -49 114 -206 125 -281 12
-89 -57 -303 -116 -356 -11 -9 -19 -21 -19 -26 0 -9 -45 -58 -54 -58 -3 0 -29
-18 -58 -40 -29 -22 -59 -40 -65 -40 -7 0 -13 -3 -13 -8 0 -17 -177 -75 -282
-91 -144 -23 -461 -12 -598 20 -97 22 -166 41 -183 51 -11 5 -21 7 -24 5 -17
-17 -29 -656 -14 -776 6 -53 16 -145 21 -206 13 -137 29 -265 40 -330 5 -27
14 -79 21 -115 32 -181 76 -327 109 -362 33 -34 132 -58 247 -58 81 0 86 1
112 29 21 22 33 53 49 123 21 93 40 285 34 345 -3 29 -7 32 -45 38 -23 3 -95
22 -159 42 -117 36 -118 37 -124 71 -14 75 19 84 167 48 206 -50 321 -67 489
-72 91 -3 175 -10 187 -16 31 -15 39 -45 74 -272 16 -111 40 -231 51 -267 30
-93 45 -101 207 -105 69 -1 152 1 183 5 99 12 133 63 158 236 5 33 14 96 22
140 10 61 13 227 12 710 -2 657 -13 987 -38 1166 -9 58 -20 162 -25 230 -9
120 -70 401 -92 423 -5 6 -9 18 -9 28 0 17 -21 62 -53 113 -25 41 -174 183
-210 200 -20 9 -37 21 -37 26 0 5 -7 9 -15 9 -8 0 -15 3 -15 8 0 12 -52 32
-85 32 -18 0 -47 -8 -66 -17 -26 -14 -66 -19 -167 -21 -138 -4 -176 3 -216 40
-21 19 -81 24 -106 8z"/>
<path d="M2135 3415 c-191 -28 -369 -143 -436 -280 -21 -43 -24 -64 -24 -155
0 -143 22 -189 134 -282 18 -16 38 -28 45 -28 7 0 17 -5 22 -10 14 -14 190
-58 299 -76 106 -16 343 -18 435 -3 130 21 290 77 290 101 0 4 7 8 15 8 9 0
18 7 21 15 4 8 11 15 18 15 14 0 66 54 66 69 0 6 3 11 8 11 19 0 54 123 55
198 1 73 -5 98 -42 162 -5 8 -15 28 -22 44 -18 39 -91 112 -120 121 -13 4 -29
14 -36 21 -8 7 -55 27 -106 43 -87 28 -104 30 -307 35 -161 4 -240 1 -315 -9z"/>
<path d="M3784 2918 c22 -184 28 -306 37 -763 11 -630 18 -817 29 -829 11 -11
107 -12 174 -2 67 10 87 43 127 206 28 111 12 952 -21 1160 -14 86 -47 188
-68 210 -30 32 -159 70 -238 70 l-46 0 6 -52z"/>
</g>
</svg>
