<?xml version="1.0" encoding="UTF-8" standalone="no"?>
<!-- Created with Inkscape (http://www.inkscape.org/) -->

<svg
   xmlns:dc="http://purl.org/dc/elements/1.1/"
   xmlns:cc="http://creativecommons.org/ns#"
   xmlns:rdf="http://www.w3.org/1999/02/22-rdf-syntax-ns#"
   xmlns:svg="http://www.w3.org/2000/svg"
   xmlns="http://www.w3.org/2000/svg"
   xmlns:sodipodi="http://sodipodi.sourceforge.net/DTD/sodipodi-0.dtd"
   xmlns:inkscape="http://www.inkscape.org/namespaces/inkscape"
   inkscape:version="0.48.3.1 r9886"
   height="1357.8019"
   width="2505.2581"
   version="1.1"
   sodipodi:docname="Indie-web-english.svg"
   viewBox="0 0 2505.2424 1357.8222"
   id="svg2">
  <defs
     id="defs4">
    <filter
       id="filter3795"
       inkscape:collect="always"
       color-interpolation-filters="sRGB">
      <feGaussianBlur
         stdDeviation="23.007434"
         inkscape:collect="always"
         id="feGaussianBlur7" />
    </filter>
    <filter
       inkscape:collect="always"
       id="filter3876"
       color-interpolation-filters="sRGB">
      <feGaussianBlur
         inkscape:collect="always"
         stdDeviation="22.502988"
         id="feGaussianBlur3878" />
    </filter>
  </defs>
  <sodipodi:namedview
     fit-margin-left="0"
     inkscape:showpageshadow="true"
     inkscape:zoom="0.11313708"
     height="0px"
     borderopacity="1.0"
     inkscape:current-layer="g11"
     inkscape:cx="1622.6452"
     inkscape:cy="-253.34154"
     inkscape:object-paths="true"
     width="0px"
     inkscape:window-maximized="0"
     inkscape:snap-bbox="true"
     showgrid="false"
     fit-margin-right="0"
     inkscape:document-units="px"
     bordercolor="#666666"
     inkscape:window-x="0"
     inkscape:window-y="34"
     fit-margin-bottom="0"
     inkscape:window-width="1034"
     inkscape:pageopacity="0.0"
     inkscape:pageshadow="2"
     pagecolor="#ffffff"
     inkscape:bbox-paths="true"
     inkscape:bbox-nodes="true"
     inkscape:window-height="842"
     showborder="true"
     fit-margin-top="0"
     id="namedview9" />
  <g
     inkscape:label="Layer"
     transform="translate(1915.6511,539.85092)"
     inkscape:groupmode="layer"
     id="g11">
    <g
       id="g3891">
      <g
         id="g3880">
        <rect
           style="color:#000000;fill:#ffffff;stroke:#000000;stroke-width:50;stroke-linecap:butt;stroke-linejoin:miter;stroke-miterlimit:4;stroke-dasharray:none;filter:url(#filter3876);enable-background:accumulate"
           rx="79.550003"
           ry="79.550003"
           height="653.09003"
           width="2347.3083"
           stroke-miterlimit="4"
           y="-460.85001"
           x="-1836.7"
           id="rect15-3" />
        <rect
           style="color:#000000;fill:#ffffff;stroke:#000000;stroke-width:50;stroke-linecap:butt;stroke-linejoin:miter;stroke-miterlimit:4;stroke-dasharray:none;enable-background:accumulate"
           rx="79.550003"
           ry="79.550003"
           height="653.09003"
           width="2347.3083"
           stroke-miterlimit="4"
           y="-460.85001"
           x="-1836.7"
           id="rect15" />
        <g
           transform="matrix(0.78497281,0,0,0.78497281,-365.92994,-71.241458)"
           id="g17">
          <path
             d="m 555.19,182.8 0,850 99.998,0 0,-49.998 -0.0572,0 0.0572,-0.0357 49.999,0 0,-49.998 49.999,0 0,-49.998 49.999,0 0,99.996 49.999,0 0.73359,0 -0.73359,100.03 49.999,0 0,49.998 99.998,0 0,-49.998 49.999,0 0,-99.996 -49.999,0 -0.7336,-0.0357 0.7336,-99.996 -49.999,0 0,-49.998 200.01,0 0,-49.998 0,-49.998 -49.999,0 0,0.069 -0.012,-0.069 0,-49.998 -49.999,0 0,-49.998 -49.999,0 0,-49.998 -49.999,0 0,-49.998 -49.999,0 0,-49.998 -49.999,0 0,-49.998 -49.999,0 0,-49.998 -49.999,0 0,-49.998 -49.999,0 0,-49.998 -49.999,0 0,-49.998 -49.999,0 0,-49.998 -49.999,0 z"
             sodipodi:nodetypes="ccccccccccccccccccccccccccccccccccccccccccccccccccccccc"
             inkscape:connector-curvature="0"
             id="path19"
             style="fill:#000000" />
          <path
             d="m 50,99.996 0,699.97 49.998,0 0,-49.998 50,0 0,-49.998 49.998,0 0,-50 50,0 0,50 49.998,0 0,99.996 49.998,0 0,100.03 99.998,0 0,-99.996 -49.998,0 0,-100.03 -50,0 0,-99.998 200,0 0,-49.998 -49.998,0 0,-49.998 -50,0 0,-49.998 -49.998,0 0,-49.998 -50,0 0,-49.998 -49.998,0 0,-49.998 -49.998,0 0,-49.998 -50,0 0,-49.998 -49.998,0 0,-49.998 -50,0 0,-49.998 z"
             sodipodi:nodetypes="ccccccccccccccccccccccccccccccccccccccccc"
             transform="translate(555.1899,182.7993)"
             inkscape:connector-curvature="0"
             id="path21"
             style="fill:#ffffff" />
        </g>
        <flowRoot
           style="font-size:87.22052002px;font-style:normal;font-variant:normal;font-weight:normal;font-stretch:normal;text-align:start;line-height:125%;letter-spacing:0px;word-spacing:0px;writing-mode:lr-tb;text-anchor:start;fill:#000000;font-family:Liberation Sans;-inkscape-font-specification:Liberation Sans"
           line-height="125%"
           xml:space="preserve"
           transform="matrix(5.1594734,0,0,5.1594734,4344.2762,224.93663)"
           font-stretch="normal"
           font-size="87.22052002px"
           font-variant="normal"
           font-weight="normal"
           font-style="normal"
           id="flowRoot23"><flowRegion
             id="flowRegion25"><rect
               style="font-size:87.22052002px;font-style:normal;font-variant:normal;font-weight:normal;font-stretch:normal;text-align:start;line-height:125%;writing-mode:lr-tb;text-anchor:start;font-family:Liberation Sans;-inkscape-font-specification:Liberation Sans"
               height="419.84"
               width="1493.8"
               y="-132.75999"
               x="-1157.9"
               id="rect27" /></flowRegion><flowPara
             id="flowPara3038">Indie web</flowPara></flowRoot>      </g>
    </g>
  </g>
  <metadata
     id="metadata31">
    <rdf:RDF>
      <cc:Work>
        <dc:format>image/svg+xml</dc:format>
        <dc:type
           rdf:resource="http://purl.org/dc/dcmitype/StillImage" />
        <cc:license
           rdf:resource="http://creativecommons.org/publicdomain/zero/1.0/" />
        <dc:publisher>
          <cc:Agent
             rdf:about="http://openclipart.org/">
            <dc:title />
          </cc:Agent>
        </dc:publisher>
        <dc:title></dc:title>
        <dc:date />
        <dc:description />
        <dc:source />
        <dc:creator>
          <cc:Agent>
            <dc:title />
          </cc:Agent>
        </dc:creator>
        <dc:subject>
          <rdf:Bag />
        </dc:subject>
      </cc:Work>
      <cc:License
         rdf:about="http://creativecommons.org/publicdomain/zero/1.0/">
        <cc:permits
           rdf:resource="http://creativecommons.org/ns#Reproduction" />
        <cc:permits
           rdf:resource="http://creativecommons.org/ns#Distribution" />
        <cc:permits
           rdf:resource="http://creativecommons.org/ns#DerivativeWorks" />
      </cc:License>
    </rdf:RDF>
  </metadata>
</svg>
